<?xml version="1.0" encoding="UTF-8"?>
<svg id="Layer_3" data-name="Layer 3" xmlns="http://www.w3.org/2000/svg" viewBox="0 0 800 800">
  <defs>
    <style>
      .cls-1 {
        fill: #000;
        stroke-width: 0px;
      }
    </style>
  </defs>
  <path class="cls-1" d="M259.74,326.76v96.19c-12.86,0-21.69,2.4-26.49,7.2s-7.85,14.28-9.16,28.44c-4.23,47.04-22.46,80.24-54.69,99.61-17.09,10.09-41.34,15.14-72.75,15.14h-12.7v-96.68h4.15c14.65,0,25.1-3.05,31.37-9.16,6.26-6.1,9.89-16.8,10.86-32.1,1.3-24.9,3.62-42.4,6.96-52.49,3.33-10.09,10.13-20.1,20.39-30.03,17.9-17.41,42.72-26.12,74.46-26.12h27.59Z"/>
  <path class="cls-1" d="M439.43,233.5h91.31v202.88c0,37.27-9.77,67.63-29.3,91.06-11.23,13.51-25.51,24.25-42.85,32.23s-35.12,11.96-53.34,11.96c-36.3,0-66.89-12.21-91.8-36.62s-37.35-54.36-37.35-89.84,12.37-64.04,37.11-89.11c24.74-25.06,54.04-37.6,87.89-37.6,5.37,0,13.51.49,24.41,1.46v100.59c-7.49-5.86-14.98-8.79-22.46-8.79-9.44,0-17.54,3.46-24.29,10.38-6.76,6.92-10.13,15.26-10.13,25.02s3.5,17.54,10.5,24.29c7,6.76,15.38,10.13,25.15,10.13,23.44,0,35.16-16.19,35.16-48.58v-199.46Z"/>
  <path class="cls-1" d="M660.13,233.5v93.26h41.02v96.44h-41.02c0,19.37,3.05,32.71,9.16,40.04s17.29,10.99,33.57,10.99v95.95c-4.72.16-8.22.24-10.5.24-20.67,0-40.16-4.8-58.47-14.4-18.31-9.6-33-22.62-44.07-39.06-14-21-21-48.83-21-83.5v-199.95h91.31Z"/>
</svg>